<?xml version="1.0" encoding="utf-8"?>
<!-- Generator: Adobe Illustrator 16.0.0, SVG Export Plug-In . SVG Version: 6.00 Build 0)  -->
<!DOCTYPE svg PUBLIC "-//W3C//DTD SVG 1.1//EN" "http://www.w3.org/Graphics/SVG/1.1/DTD/svg11.dtd">
<svg version="1.1" id="Layer_1" xmlns="http://www.w3.org/2000/svg" xmlns:xlink="http://www.w3.org/1999/xlink" x="0px" y="0px"
	 width="200px" height="200px" viewBox="0 0 200 200" enable-background="new 0 0 200 200" xml:space="preserve">
<g>
	<path fill-rule="evenodd" clip-rule="evenodd" fill="#00B0FE" d="M75,201c-0.333,0-0.667,0-1,0
		c-9.239-4.245-14.795-12.621-21.683-19.482c-1.799-1.791-1.275-4.249-0.388-6.585c1.682-4.431,2.335-8.868,0.623-13.597
		c-3.511-9.696-13.383-15.174-23.09-11.628c-5.518,2.016-9.156,0.739-12.748-3.302c-2.645-2.977-5.571-5.719-8.495-8.43
		C5.132,135.114,2.543,131.951,1,128c0-0.333,0-0.667,0-1c1.492-3.793,4.071-6.745,6.931-9.6
		c23.233-23.193,46.431-46.423,69.671-69.608c6.874-6.858,8.08-6.894,15.195-0.66c1.517,1.328,3.055,3.111,5.07,0.99
		c2.107-2.218-0.116-3.578-1.389-4.974c-6.234-6.833-6.225-8.001,0.425-14.707c6.806-6.863,13.731-13.607,20.494-20.512
		c2.83-2.889,5.809-5.438,9.602-6.93c0.334,0,0.666,0,1,0c8.915,4.081,14.402,12.047,20.996,18.722
		c2.592,2.625,1.234,5.771-0.039,8.829c-4.331,10.404-0.404,20.829,9.437,24.954c4.942,2.072,10.125,2.084,14.966-0.343
		c4.543-2.278,8.266-1.693,11.582,2.103C190.354,61.458,197.737,65.963,201,74c0,0.333,0,0.667,0,1
		c-1.488,3.793-4.047,6.763-6.93,9.594c-7.367,7.234-14.549,14.658-21.926,21.885c-4.975,4.874-7.142,4.841-12.17,0.081
		c-0.242-0.229-0.455-0.493-0.719-0.693c-1.59-1.209-2.933-4.032-5.33-1.739c-2.627,2.513,0.154,4.135,1.624,5.728
		c5.688,6.161,5.722,7.471-0.321,13.523c-24.125,24.162-48.27,48.305-72.395,72.467C80.519,198.164,77.786,199.551,75,201z"/>
</g>
</svg>
