<?xml version="1.0" encoding="utf-8"?>
<!-- Generator: Adobe Illustrator 16.0.0, SVG Export Plug-In . SVG Version: 6.00 Build 0)  -->
<!DOCTYPE svg PUBLIC "-//W3C//DTD SVG 1.1//EN" "http://www.w3.org/Graphics/SVG/1.1/DTD/svg11.dtd">
<svg version="1.1" id="Layer_1" xmlns="http://www.w3.org/2000/svg" xmlns:xlink="http://www.w3.org/1999/xlink" x="0px" y="0px"
	 width="506.212px" height="470.385px" viewBox="0 0 506.212 470.385" enable-background="new 0 0 506.212 470.385"
	 xml:space="preserve">
<g>
	<path fill-rule="evenodd" clip-rule="evenodd" d="M0.321,0C0.983,0.292,1.635,0.605,2.31,0.872
		c7.548,2.983,15.104,5.949,22.648,8.941c5.394,2.139,10.769,4.316,16.157,6.465c5.83,2.325,11.669,4.633,17.501,6.956
		c5.731,2.282,11.458,4.574,17.188,6.858c5.732,2.285,11.468,4.564,17.199,6.851c5.487,2.189,10.968,4.391,16.456,6.579
		c5.781,2.305,11.573,4.586,17.346,6.904c2.754,1.106,5.495,2.243,8.206,3.432c0.923,0.406,1.662,0.322,2.537-0.085
		c6.615-3.072,13.256-6.102,19.878-9.164c4.63-2.14,9.244-4.308,13.864-6.465c4.339-2.026,8.675-4.057,13.016-6.078
		c0.452-0.21,0.932-0.371,1.501-0.594c-1.313,2.37-2.559,4.605-3.791,6.846c-6.408,11.658-10.178,23.987-11.825,36.858
		c-0.049,0.379-0.234,0.769-0.174,1.129c0.429,2.581-1.278,3.638-3.643,4.532c-2.94,1.112-5.716,2.562-8.602,3.795
		c-3.482,1.489-6.88,3.254-10.533,4.282c-9.813,2.76-19.383,1.733-28.68-2.119c-6.754-2.798-13.606-5.406-20.408-8.112
		c-5.481-2.182-10.951-4.387-16.428-6.576c-5.73-2.292-11.463-4.577-17.194-6.866c-5.77-2.304-11.551-4.586-17.302-6.925
		c-2.689-1.094-5.32-2.3-8.2-3.553c0,54.113,0,107.925,0,161.962c1.333,0.068,2.694,0.15,4.056,0.208
		c9.798,0.405,19.535,1.399,28.98,3.734c7.373,1.821,14.666,4.02,21.766,6.556c5.356,1.913,10.455,4.467,15.476,7.033
		c3.916,2.002,7.721,4.257,11.244,6.77c4.73,3.373,9.192,7.054,13.66,10.709c1.409,1.151,2.776,1.761,4.75,1.906
		c8.895,0.655,17.326,2.887,24.743,7.355c6.328,3.813,11.333,8.869,15.001,14.893c2.39,3.924,4.808,7.838,7.062,11.823
		c3.239,5.729,6.132,11.621,9.558,17.258c3.601,5.923,8.108,11.299,14.289,15.368c4.39,2.89,8.99,5.397,14.416,6.507
		c5.288,1.08,10.417,0.657,15.428-1.057c2.667-0.914,5.231-2.075,7.925-2.913c1.688-0.525,3.542-0.962,5.303-0.913
		c6.142,0.172,12.356,0.126,18.395,0.989c9.246,1.322,18.526,2.896,27.125,6.409c5.02,2.052,9.911,4.41,14.633,6.966
		c3.351,1.812,6.471,4.031,9.428,6.338c5.343,4.171,10.219,8.78,14.46,13.861c5.26,6.304,9.688,13.075,13.368,20.215
		c6.29,12.195,10.504,24.983,13.493,38.11c0.435,1.911,0.759,3.844,1.282,5.734c0.145,0.524,0.719,1.116,1.271,1.361
		c1.671,0.739,3.438,1.302,5.148,1.971c5.204,2.04,10.385,4.126,15.614,6.11c0.664,0.251,1.683,0.219,2.342-0.056
		c3.293-1.368,6.535-2.837,9.768-4.318c4.828-2.213,9.635-4.464,14.449-6.704c4.767-2.218,9.528-4.442,14.295-6.659
		c5.1-2.369,10.205-4.729,15.303-7.1c4.529-2.107,9.058-4.217,13.577-6.341c3.243-1.525,6.485-3.053,9.689-4.641
		c0.41-0.202,0.691-0.742,0.85-1.179c0.142-0.388,0.032-0.85,0.032-1.278c0-110.138,0-220.275,0-330.412c0-0.695,0-1.391,0-2.377
		c-1.778,0.773-3.255,1.393-4.71,2.052c-7.313,3.309-14.624,6.618-21.927,9.945c-4.832,2.202-9.658,4.417-14.467,6.659
		c-3.851,1.795-7.672,3.641-11.808,5.607c-0.76-12.813-3.449-24.977-8.527-36.845c5.686-2.592,11.273-5.131,16.852-7.684
		c5.483-2.51,10.961-5.03,16.436-7.555c4.535-2.093,9.06-4.204,13.593-6.299c5.39-2.491,10.788-4.968,16.175-7.462
		c4.191-1.941,8.367-3.909,12.561-5.847c5.478-2.532,10.978-5.024,16.443-7.577c2.718-1.269,5.379-2.636,8.065-3.958
		c0.107,0,0.214,0,0.321,0c-0.017,0.475-0.048,0.95-0.048,1.425c-0.003,137.593-0.003,275.186-0.003,412.78
		c0,0.477,0.08,0.969-0.026,1.426c-0.085,0.363-0.302,0.824-0.625,1.003c-1.523,0.84-3.083,1.633-4.668,2.379
		c-4.648,2.192-9.313,4.358-13.977,6.528c-4.993,2.323-9.994,4.636-14.989,6.957c-4.853,2.257-9.7,4.521-14.553,6.778
		c-4.946,2.3-9.896,4.595-14.845,6.894c-4.948,2.298-9.897,4.596-14.844,6.898c-4.661,2.17-9.317,4.353-13.979,6.521
		c-4.994,2.323-9.986,4.649-14.993,6.951c-2.703,1.241-5.41,2.483-8.174,3.611c-0.665,0.271-1.677,0.32-2.338,0.069
		c-4.152-1.573-8.249-3.262-12.367-4.905c-5.676-2.267-11.356-4.524-17.032-6.79c-5.528-2.208-11.055-4.424-16.582-6.633
		c-5.681-2.27-11.363-4.535-17.044-6.804c-5.774-2.309-11.546-4.621-17.321-6.926c-5.726-2.283-11.451-4.568-17.185-6.838
		c-7.976-3.156-15.966-6.285-23.937-9.452c-3.15-1.251-6.309-2.497-9.387-3.882c-2.625-1.181-5.14-2.033-7.756-0.058
		c-0.513,0.387-1.067,0.75-1.659,1.029c-4.692,2.207-9.397,4.393-14.102,6.581c-4.94,2.299-9.883,4.591-14.825,6.887
		c-4.941,2.294-9.884,4.589-14.824,6.887c-4.894,2.275-9.783,4.558-14.676,6.833c-4.94,2.298-9.885,4.588-14.825,6.887
		c-4.704,2.188-9.403,4.384-14.107,6.573c-4.94,2.296-9.875,4.603-14.828,6.88c-2.748,1.264-5.499,2.524-8.309,3.67
		c-0.655,0.267-1.662,0.282-2.323,0.03c-3.899-1.485-7.739-3.094-11.607-4.644c-5.915-2.369-11.837-4.725-17.756-7.086
		c-5.381-2.146-10.761-4.294-16.143-6.44c-5.871-2.34-11.743-4.678-17.614-7.018c-5.679-2.265-11.356-4.533-17.038-6.794
		c-5.821-2.317-11.649-4.621-17.468-6.941c-5.627-2.245-11.237-4.523-16.869-6.758c-6.847-2.715-13.71-5.399-20.566-8.097
		C0,278.038,0,139.663,0.013,1.288C0.013,0.858,0.214,0.429,0.321,0z"/>
	<path fill-rule="evenodd" clip-rule="evenodd" d="M303.908,287.84c-7.927,0-15.931,0-24.006,0
		c-0.128-2.243-0.215-4.425-0.384-6.599c-0.652-8.393-2.33-16.641-5.032-24.682c-2.383-7.093-4.972-14.146-7.899-21.072
		c-2.911-6.886-6.219-13.647-9.611-20.36c-3.479-6.885-7.201-13.673-10.943-20.448c-3.813-6.903-7.78-13.739-11.676-20.606
		c-3.681-6.488-7.44-12.941-11.011-19.477c-3.871-7.088-7.757-14.178-11.276-21.407c-3.073-6.313-5.88-12.747-8.384-19.257
		c-3.835-9.974-6.112-20.208-5.188-30.856c0.703-8.106,2.335-16.027,5.352-23.719c2.957-7.539,6.891-14.612,12.008-21.183
		c3.786-4.862,7.843-9.501,12.859-13.405c3.204-2.493,6.376-5.051,9.821-7.259c3.657-2.345,7.607-4.332,11.454-6.438
		c6.86-3.755,14.528-5.552,22.225-7.328c12.396-2.86,24.884-2.816,37.293-0.547c7.54,1.378,15.024,3.297,21.914,6.512
		c4.328,2.019,8.573,4.222,12.635,6.638c3.266,1.941,6.344,4.184,9.248,6.545c5.165,4.197,9.862,8.817,13.898,13.907
		c4.848,6.11,8.879,12.652,11.83,19.67c5.032,11.967,7.5,24.324,6.334,37.118c-0.521,5.703-2.013,11.292-4.214,16.662
		c-2.942,7.181-5.979,14.343-9.365,21.364c-3.365,6.977-7.144,13.798-10.871,20.631c-3.707,6.795-7.582,13.517-11.372,20.275
		c-3.813,6.797-7.677,13.573-11.4,20.409c-3.656,6.713-7.299,13.438-10.71,20.251c-5.586,11.156-10.814,22.448-14.99,34.1
		c-3.188,8.894-5.82,17.915-7.186,27.184C304.616,278.849,304.357,283.278,303.908,287.84z M250.652,89.923
		c0.13,5.757,1.711,11.21,4.488,16.371c2.832,5.262,7.005,9.642,12.013,13.338c4.579,3.38,10.028,5.479,15.69,6.768
		c7.014,1.597,14.108,1.485,21.073-0.806c5.55-1.826,10.702-4.078,15.106-7.738c4.613-3.834,8.179-8.212,10.676-13.353
		c3.451-7.105,4.492-14.469,3.062-22.081c-2.074-11.043-8.451-19.725-18.902-25.824c-7.168-4.183-15.266-5.897-23.865-5.449
		c-8.507,0.441-16.231,2.678-23.001,7.506c-5.28,3.766-9.35,8.262-12.243,13.688C251.773,77.923,250.566,83.799,250.652,89.923z"/>
</g>
</svg>
